<svg xmlns="http://www.w3.org/2000/svg" width="41" height="45" viewBox="0 0 41 45">
    <g fill="none" fill-rule="evenodd">
        <g fill="#623B29" fill-rule="nonzero">
            <g>
                <g>
                    <g>
                        <path d="M6.459 19.744c-.337 0-.562.225-.562.562v1.013c0 .337.225.562.562.562.337 0 .562-.225.562-.562v-1.013c0-.281-.225-.562-.562-.562zM11.682 19.744c-.337 0-.561.225-.561.562v1.013c0 .337.224.562.561.562.337 0 .562-.225.562-.562v-1.013c0-.281-.225-.562-.562-.562zM16.962 19.744c-.337 0-.562.225-.562.562v1.013c0 .337.225.562.562.562.337 0 .561-.225.561-.562v-1.013c0-.281-.28-.562-.561-.562zM6.459 23.906c-.337 0-.562.225-.562.563v1.012c0 .338.225.563.562.563.337 0 .562-.225.562-.563V24.47c0-.338-.225-.563-.562-.563zM11.682 23.906c-.337 0-.561.225-.561.563v1.012c0 .338.224.563.561.563.337 0 .562-.225.562-.563V24.47c0-.338-.225-.563-.562-.563zM16.962 23.906c-.337 0-.562.225-.562.563v1.012c0 .338.225.563.562.563.337 0 .561-.225.561-.563V24.47c0-.338-.28-.563-.561-.563zM6.459 28.012c-.337 0-.562.226-.562.563v1.012c0 .338.225.563.562.563.337 0 .562-.225.562-.563v-1.012c0-.337-.225-.563-.562-.563zM11.682 28.012c-.337 0-.561.226-.561.563v1.012c0 .338.224.563.561.563.337 0 .562-.225.562-.563v-1.012c0-.337-.225-.563-.562-.563zM16.962 28.012c-.337 0-.562.226-.562.563v1.012c0 .338.225.563.562.563.337 0 .561-.225.561-.563v-1.012c0-.337-.28-.563-.561-.563zM6.459 32.119c-.337 0-.562.225-.562.562v1.013c0 .337.225.562.562.562.337 0 .562-.225.562-.562V32.68c0-.337-.225-.562-.562-.562zM11.682 32.119c-.337 0-.561.225-.561.562v1.013c0 .337.224.562.561.562.337 0 .562-.225.562-.562V32.68c0-.337-.225-.562-.562-.562zM16.962 32.119c-.337 0-.562.225-.562.562v1.013c0 .337.225.562.562.562.337 0 .561-.225.561-.562V32.68c0-.337-.28-.562-.561-.562zM6.459 36.225c-.337 0-.562.225-.562.563V37.8c0 .338.225.563.562.563.337 0 .562-.225.562-.563v-1.012c0-.282-.225-.563-.562-.563zM11.682 36.225c-.337 0-.561.225-.561.563V37.8c0 .338.224.563.561.563.337 0 .562-.225.562-.563v-1.012c0-.282-.225-.563-.562-.563zM16.962 36.225c-.337 0-.562.225-.562.563V37.8c0 .338.225.563.562.563.337 0 .561-.225.561-.563v-1.012c0-.282-.28-.563-.561-.563zM22.241 19.744c-.337 0-.562.225-.562.562v1.013c0 .337.225.562.562.562.337 0 .562-.225.562-.562v-1.013c0-.281-.281-.562-.562-.562zM27.464 19.744c-.337 0-.561.225-.561.562v1.013c0 .337.224.562.561.562.337 0 .562-.225.562-.562v-1.013c0-.281-.225-.562-.562-.562zM22.241 23.906c-.337 0-.562.225-.562.563v1.012c0 .338.225.563.562.563.337 0 .562-.225.562-.563V24.47c0-.338-.281-.563-.562-.563zM27.464 23.906c-.337 0-.561.225-.561.563v1.012c0 .338.224.563.561.563.337 0 .562-.225.562-.563V24.47c0-.338-.225-.563-.562-.563zM22.241 28.012c-.337 0-.562.226-.562.563v1.012c0 .338.225.563.562.563.337 0 .562-.225.562-.563v-1.012c0-.337-.281-.563-.562-.563zM27.464 28.012c-.337 0-.561.226-.561.563v1.012c0 .338.224.563.561.563.337 0 .562-.225.562-.563v-1.012c0-.337-.225-.563-.562-.563zM22.241 32.119c-.337 0-.562.225-.562.562v1.013c0 .337.225.562.562.562.337 0 .562-.225.562-.562V32.68c0-.337-.281-.562-.562-.562zM27.464 32.119c-.337 0-.561.225-.561.562v1.013c0 .337.224.562.561.562.337 0 .562-.225.562-.562V32.68c0-.337-.225-.562-.562-.562zM22.241 36.225c-.337 0-.562.225-.562.563V37.8c0 .338.225.563.562.563.337 0 .562-.225.562-.563v-1.012c0-.282-.281-.563-.562-.563zM27.464 36.225c-.337 0-.561.225-.561.563V37.8c0 .338.224.563.561.563.337 0 .562-.225.562-.563v-1.012c0-.282-.225-.563-.562-.563z" transform="translate(-166 -2289) translate(165 2197) translate(0 90) translate(1 2)"/>
                        <path d="M.674 44.494h39.484c.337 0 .561-.225.561-.563 0-.337-.224-.562-.561-.562H38.81L37.462.675c0-.281-.281-.563-.562-.563h-4.942c-.281 0-.562.226-.562.563l-.45 14.794-2.246-1.406-.505-11.026c0-.28-.281-.562-.562-.562h-2.92c-.281 0-.562.225-.562.563l-.337 7.987-2.247-1.406c-.168-.113-.393-.113-.562 0-.168.112-.28.281-.28.506v4.613l-1.236-.732-.505-10.969c0-.28-.281-.562-.562-.562h-2.92c-.281 0-.562.225-.562.563l-.337 8.043-2.415-1.406c-.169-.113-.393-.113-.562 0-.168.112-.28.281-.28.506v4.613l-1.124-.732-.506-10.968c0-.281-.28-.563-.561-.563h-2.92c-.282 0-.562.225-.562.563l-.337 8.043L2.808 9.62c-.168-.113-.393-.113-.561 0-.169.112-.281.281-.281.506v33.244H.674c-.337 0-.562.225-.562.562 0 .338.225.563.562.563zM32.519 1.237h3.82L37.63 43.37h-6.403L32.52 1.237zm-7.245 2.42h1.853l.45 9.73-2.696-1.63.393-8.1zm-9.267 0h1.853l.45 9.674-2.696-1.575.393-8.1zm-9.211 0h1.853l.45 9.73-2.696-1.575.393-8.156zm-3.707 7.48l8.537 5.063c.169.113.393.113.562 0 .168-.113.28-.281.28-.506V11.08l8.537 5.063c.169.112.394.112.562 0 .169-.113.28-.281.28-.45l.057-1.35V11.08l9.043 5.625-.843 26.607H3.09V11.138z" transform="translate(-166 -2289) translate(165 2197) translate(0 90) translate(1 2)"/>
                    </g>
                </g>
            </g>
        </g>
    </g>
</svg>
