<svg xmlns="http://www.w3.org/2000/svg" width="45" height="45" viewBox="0 0 45 45">
    <g fill="none" fill-rule="evenodd">
        <g fill="#623B29" fill-rule="nonzero">
            <g>
                <g>
                    <g>
                        <path d="M6.816 30.15c-.31 0-.562.251-.562.563v3.057c0 .311.252.563.562.563.31 0 .563-.252.563-.563v-3.058c0-.31-.252-.562-.563-.562zM6.816 23.28c-.31 0-.562.252-.562.563V26.9c0 .311.252.563.562.563.31 0 .563-.252.563-.563v-3.058c0-.311-.252-.563-.563-.563zM6.816 16.973c-.31 0-.562.252-.562.563v3.058c0 .31.252.562.562.562.31 0 .563-.251.563-.562v-3.058c0-.311-.252-.563-.563-.563zM10.688 30.15c-.311 0-.563.251-.563.563v3.057c0 .311.252.563.563.563.31 0 .562-.252.562-.563v-3.058c0-.31-.252-.562-.563-.562zM10.688 23.28c-.311 0-.563.252-.563.563V26.9c0 .311.252.563.563.563.31 0 .562-.252.562-.563v-3.058c0-.311-.252-.563-.563-.563zM10.688 16.973c-.311 0-.563.252-.563.563v3.058c0 .31.252.562.563.562.31 0 .562-.251.562-.562v-3.058c0-.311-.252-.563-.563-.563zM14.559 30.15c-.31 0-.563.251-.563.563v3.057c0 .311.252.563.563.563.31 0 .562-.252.562-.563v-3.058c0-.31-.252-.562-.562-.562zM6.816 37.013c-.31 0-.562.25-.562.562v3.058c0 .31.252.562.562.562.31 0 .563-.251.563-.562v-3.058c0-.311-.252-.563-.563-.563zM10.688 37.013c-.311 0-.563.25-.563.562v3.058c0 .31.252.562.563.562.31 0 .562-.251.562-.562v-3.058c0-.311-.252-.563-.563-.563zM14.559 37.013c-.31 0-.563.25-.563.562v3.058c0 .31.252.562.563.562.31 0 .562-.251.562-.562v-3.058c0-.311-.252-.563-.562-.563zM14.559 23.28c-.31 0-.563.252-.563.563V26.9c0 .311.252.563.563.563.31 0 .562-.252.562-.563v-3.058c0-.311-.252-.563-.562-.563zM14.559 16.973c-.31 0-.563.252-.563.563v3.058c0 .31.252.562.563.562.31 0 .562-.251.562-.562v-3.058c0-.311-.252-.563-.562-.563zM18.43 30.15c-.31 0-.563.251-.563.563v3.057c0 .311.252.563.563.563.31 0 .562-.252.562-.563v-3.058c0-.31-.252-.562-.562-.562zM18.43 23.28c-.31 0-.563.252-.563.563V26.9c0 .311.252.563.563.563.31 0 .562-.252.562-.563v-3.058c0-.311-.252-.563-.562-.563zM18.43 16.973c-.31 0-.563.252-.563.563v3.058c0 .31.252.562.563.562.31 0 .562-.251.562-.562v-3.058c0-.311-.252-.563-.562-.563zM22.3 30.15c-.31 0-.562.251-.562.563v3.057c0 .311.252.563.563.563.31 0 .562-.252.562-.563v-3.058c0-.31-.252-.562-.562-.562zM22.3 23.28c-.31 0-.562.252-.562.563V26.9c0 .311.252.563.563.563.31 0 .562-.252.562-.563v-3.058c0-.311-.252-.563-.562-.563zM22.3 16.973c-.31 0-.562.252-.562.563v3.058c0 .31.252.562.563.562.31 0 .562-.251.562-.562v-3.058c0-.311-.252-.563-.562-.563zM26.172 27.463c.31 0 .563-.252.563-.563v-3.058c0-.31-.252-.562-.563-.562-.31 0-.563.251-.563.562V26.9c0 .312.252.563.563.563zM26.172 21.156c.31 0 .563-.252.563-.563v-3.058c0-.31-.252-.562-.563-.562-.31 0-.563.251-.563.562v3.058c0 .311.252.563.563.563zM30.043 27.463c.31 0 .563-.252.563-.563v-3.058c0-.31-.252-.562-.563-.562-.31 0-.562.251-.562.562V26.9c0 .312.252.563.562.563zM30.043 21.156c.31 0 .563-.252.563-.563v-3.058c0-.31-.252-.562-.563-.562-.31 0-.562.251-.562.562v3.058c0 .311.252.563.562.563zM33.914 27.463c.31 0 .563-.252.563-.563v-3.058c0-.31-.252-.562-.563-.562-.31 0-.562.251-.562.562V26.9c0 .312.252.563.562.563zM33.914 21.156c.31 0 .563-.252.563-.563v-3.058c0-.31-.252-.562-.563-.562-.31 0-.562.251-.562.562v3.058c0 .311.252.563.562.563zM22.3 37.013c-.31 0-.562.25-.562.562v3.058c0 .31.252.562.563.562.31 0 .562-.251.562-.562v-3.058c0-.311-.252-.563-.562-.563zM18.43 37.013c-.31 0-.563.25-.563.562v3.058c0 .31.252.562.563.562.31 0 .562-.251.562-.562v-3.058c0-.311-.252-.563-.562-.563zM37.785 27.463c.31 0 .563-.252.563-.563v-3.058c0-.31-.252-.562-.563-.562-.31 0-.562.251-.562.562V26.9c0 .312.252.563.562.563zM37.785 21.156c.31 0 .563-.252.563-.563v-3.058c0-.31-.252-.562-.563-.562-.31 0-.562.251-.562.562v3.058c0 .311.252.563.562.563z" transform="translate(-797 -2774) translate(0 2657) translate(795 117) translate(2)"/>
                        <path d="M44.578 43.903v-14.02c0-.311-.252-.563-.562-.563h-2.391V13.476c0-.31-.252-.562-.563-.562h-1.965V4.5c0-.262-.181-.49-.436-.548L21.585.014c-.167-.037-.342.001-.476.108-.134.106-.212.269-.212.44v12.351H15.12V.563c0-.196-.102-.378-.268-.48-.167-.102-.375-.11-.55-.022L6.563 3.998c-.189.096-.308.29-.308.502v8.414H2.98c-.31 0-.563.251-.563.562v30.399H.563c-.311 0-.563.251-.563.563 0 .31.252.562.563.562h43.874c.311 0 .563-.251.563-.563 0-.26-.181-.47-.422-.534zm-1.125-.028h-3.595v-8.719c0-.31-.252-.562-.562-.562h-8.404c-.31 0-.563.251-.563.562v8.719h-3.595v-13.43h16.72v13.43zm-7.797-8.156h3.077v8.156h-3.077v-8.156zm-1.125 8.156h-3.077v-8.156h3.077v8.156zM22.021 1.27l15.95 3.678v7.966h-15.95V1.27zM7.379 4.845l6.617-3.365v11.434H7.38v-8.07zm-3.837 9.194H40.5V29.32H26.172c-.31 0-.563.252-.563.563v13.992H3.543V14.039z" transform="translate(-797 -2774) translate(0 2657) translate(795 117) translate(2)"/>
                    </g>
                </g>
            </g>
        </g>
    </g>
</svg>
