<svg xmlns="http://www.w3.org/2000/svg" width="25" height="40" viewBox="0 0 25 40">
    <g fill="none" fill-rule="evenodd">
        <g fill="#FFF" fill-rule="nonzero" stroke="#FFF">
            <g>
                <g>
                    <g>
                        <path d="M11.5 37.747c6.16 0 11.171-5.236 11.171-11.654V11.907C22.671 5.489 17.661.253 11.5.253 5.34.253.329 5.49.329 11.907V26.05c0 6.46 5.01 11.696 11.171 11.696zm-9.529-25.84c0-5.49 4.272-9.965 9.529-9.965s9.529 4.476 9.529 9.965V26.05c0 5.489-4.272 9.965-9.529 9.965s-9.529-4.434-9.529-9.923V11.907z" transform="translate(-709 -558) translate(0 559) translate(710)"/>
                        <path d="M11.5 13.553c.452 0 .821-.38.821-.844V9.078c0-.465-.37-.845-.821-.845-.452 0-.821.38-.821.845v3.63c0 .465.37.845.821.845z" transform="translate(-709 -558) translate(0 559) translate(710)"/>
                    </g>
                </g>
            </g>
        </g>
    </g>
</svg>
