<svg xmlns="http://www.w3.org/2000/svg" width="18" height="15" viewBox="0 0 18 15">
    <g fill="none" fill-rule="evenodd">
        <g fill="#8B8B8B" fill-rule="nonzero">
            <g>
                <g>
                    <path d="M17.365 7.633c.191.001.364-.11.437-.282.073-.172.03-.37-.108-.498-.96-.893-1.98-1.83-2.999-2.765v-2.99c-.002-.259-.22-.468-.488-.467l-1.8.013c-.125.001-.244.05-.331.137-.088.087-.136.204-.135.325v.542c-.6-.523-1.145-1.01-1.66-1.458L10.26.164c-.156-.132-.391-.126-.54.014C8.196 1.64 7.037 2.784 6.242 3.61c-.061.097-.036.224.058.292.066.078.182.098.272.047.833-.684 1.97-1.668 3.407-2.94.641.596 1.318 1.24 2.106 1.974.085.078.197.122.313.123.253.002.46-.194.463-.44v-.008c0-.349 0-.717.01-1.102h.832v2.728c0 .132.057.259.157.349.78.708 1.56 1.414 2.324 2.093l-1.167.015h-.014c-.116.003-.227.05-.306.132-.08.082-.122.192-.117.304.038 2.38.097 4.445.18 5.86-.801-.041-1.72-.065-2.657-.07.112-.852.18-2.2.207-3.704.003-.122-.045-.24-.133-.327-.087-.088-.207-.138-.333-.14h-.016c-.886-.016-1.822-.016-2.7 0h-.016c-.127.001-.248.051-.336.139-.089.088-.137.206-.136.328.025 1.514.095 2.908.21 3.763-.693.021-1.386.08-2.073.174-.034 0-.061.122-.06.256.002.135.028.217.06.222 1.98.323 7.92.32 9.9 0 .034 0 .061-.12.058-.251-.004-.131-.027-.211-.058-.217-.351-.057-.832-.104-1.391-.143.075-1.33.133-3.244.18-5.459l1.899.025zM9.59 9.738h1.757c.03 1.311.097 2.468.196 3.23-.74 0-1.472.014-2.15.037.1-.768.167-1.952.197-3.267z" transform="translate(-223 -175) translate(166 166) translate(57 9)"/>
                    <path d="M1.532 10.97c.247.133.513.228.79.282.125.02.251.034.378.04.038 1.404.083 2.595.14 3.488 0 .094.125.175.263.159.139-.016.225-.075.23-.159.062-.97.112-2.3.15-3.88v-.042c-.007-.101-.055-.195-.134-.26-.079-.066-.182-.098-.285-.09h-.015c-.187.014-.375 0-.558-.043-.187-.044-.366-.116-.53-.213-.345-.201-.611-.508-.757-.872-.146-.38-.153-.798-.02-1.182.144-.397.43-.73.807-.939.147-.08.239-.23.241-.394v-.009c.008-.445.194-.87.518-1.186.5-.484 1.251-.631 1.907-.375.655.257 1.09.868 1.103 1.553v.01c.004.162.095.31.241.39.382.21.67.548.812.95.07.194.102.4.094.607-.006.2-.046.4-.121.587-.15.363-.418.67-.763.873-.165.094-.344.165-.53.21-.18.039-.367.052-.552.04h-.052c-.209.006-.374.173-.371.376.038 1.744.086 2.965.146 3.884 0 .092.122.162.257.155.135-.007.218-.073.223-.155.054-.842.1-1.957.137-3.488.126-.004.25-.016.375-.037.273-.051.536-.143.78-.272.524-.278.936-.718 1.173-1.249.122-.276.192-.572.208-.872.021-.311-.018-.624-.117-.921-.175-.536-.522-1.004-.99-1.336-.135-1.356-1.31-2.39-2.716-2.39-1.405 0-2.581 1.034-2.716 2.39-.46.324-.804.779-.985 1.301-.1.296-.142.607-.126.918.009.303.074.602.193.882.232.54.645.987 1.172 1.27z" transform="translate(-223 -175) translate(166 166) translate(57 9)"/>
                </g>
            </g>
        </g>
    </g>
</svg>
