<svg xmlns="http://www.w3.org/2000/svg" width="16" height="13" viewBox="0 0 16 13">
    <g fill="none" fill-rule="evenodd">
        <g fill="#E9501B" fill-rule="nonzero">
            <g>
                <g>
                    <g>
                        <path d="M4.636 12.993c-1.237 0-2.4-.448-3.275-1.261C.485 10.919.004 9.838.004 8.688c0-1.15.481-2.23 1.356-3.044L7.117.295c.14-.13.367-.13.508 0 .14.13.14.341 0 .472L1.868 6.116C1.128 6.803.72 7.716.72 8.688s.407 1.885 1.147 2.573c.74.687 1.723 1.065 2.768 1.065 1.046 0 2.03-.378 2.77-1.065l4.748-4.413c.14-.13.368-.13.508 0s.14.34 0 .471l-4.75 4.413c-.875.813-2.038 1.26-3.276 1.26z" transform="translate(-166 -1294) translate(164 1053) translate(1 116) translate(1 125)"/>
                        <path d="M12.408 7.417c-.092 0-.184-.033-.254-.098-.14-.13-.14-.341 0-.471l2.59-2.407c.387-.36.574-.864.528-1.422-.048-.578-.337-1.14-.815-1.584-.971-.902-2.422-1.022-3.234-.267-.14.13-.368.13-.508 0s-.14-.342 0-.472c1.092-1.014 2.998-.894 4.25.268.598.556.961 1.268 1.022 2.004.063.755-.198 1.445-.735 1.944l-2.59 2.407c-.07.065-.162.098-.254.098z" transform="translate(-166 -1294) translate(164 1053) translate(1 116) translate(1 125)"/>
                        <path d="M4.636 10.345c-.476 0-.924-.172-1.26-.485-.338-.313-.523-.73-.523-1.172 0-.443.185-.859.522-1.172l7.34-6.82c.14-.13.367-.13.508 0 .14.13.14.342 0 .472l-7.34 6.82c-.202.187-.313.435-.313.7 0 .265.111.513.313.7.201.188.469.29.753.29.285 0 .553-.103.754-.29l7.34-6.82c.14-.13.367-.13.507 0s.14.342 0 .472l-7.34 6.82c-.336.313-.784.485-1.26.485z" transform="translate(-166 -1294) translate(164 1053) translate(1 116) translate(1 125)"/>
                    </g>
                </g>
            </g>
        </g>
    </g>
</svg>
