<svg xmlns="http://www.w3.org/2000/svg" width="38" height="38" viewBox="0 0 38 38">
    <g fill="none" fill-rule="evenodd">
        <g fill="#E9501B" fill-rule="nonzero" stroke="#EB4F00" stroke-width=".6">
            <g>
                <g>
                    <g>
                        <g>
                            <path d="M18 0C8.075 0 0 8.075 0 18s8.075 18 18 18 18-8.075 18-18S27.925 0 18 0zm0 35.1C8.571 35.1.9 27.429.9 18 .9 8.571 8.571.9 18 .9 27.429.9 35.1 8.571 35.1 18c0 9.429-7.671 17.1-17.1 17.1z" transform="translate(-273 -1294) translate(0 1180) translate(183 115) translate(91)"/>
                            <path d="M23.71 18.512l-5.26 3.313V9.805c0-.25-.201-.45-.45-.45s-.45.2-.45.45v12.02l-5.26-3.313c-.212-.132-.49-.07-.621.141-.133.21-.07.488.14.621l5.951 3.747c.073.046.157.069.24.069.083 0 .167-.023.24-.07l5.95-3.746c.21-.133.274-.41.141-.621-.132-.21-.41-.272-.62-.141zM23.901 24.863H12.049c-.248 0-.45.201-.45.45s.202.45.45.45h11.852c.248 0 .45-.201.45-.45s-.202-.45-.45-.45z" transform="translate(-273 -1294) translate(0 1180) translate(183 115) translate(91)"/>
                        </g>
                    </g>
                </g>
            </g>
        </g>
    </g>
</svg>
