<svg xmlns="http://www.w3.org/2000/svg" width="16" height="16" viewBox="0 0 16 16">
    <g fill="none" fill-rule="evenodd">
        <g fill="#FF1A1A" fill-rule="nonzero">
            <g>
                <g>
                    <path d="M8 0C3.582 0 0 3.582 0 8s3.582 8 8 8 8-3.582 8-8c0-2.122-.843-4.157-2.343-5.657S10.122 0 8 0zm0 12.5c-.552 0-1-.448-1-1s.448-1 1-1 1 .448 1 1-.448 1-1 1zM9 9H7V3.5h2V9z" transform="translate(-975 -258) translate(450 237) translate(525 21)"/>
                </g>
            </g>
        </g>
    </g>
</svg>
