<svg xmlns="http://www.w3.org/2000/svg" width="29" height="37" viewBox="0 0 29 37">
    <g fill="none" fill-rule="evenodd">
        <g fill="#EDE7E5">
            <g>
                <g>
                    <g transform="translate(-819 -812) translate(0 746) translate(564 61) translate(253.77 3.752)">
                        <path d="M9.08 22.297l13.715-8.24c.947-.57 2.176-.263 2.745.684.568.947.262 2.175-.685 2.744l-13.714 8.24c-.947.57-2.176.263-2.745-.683-.569-.947-.262-2.176.684-2.745z"/>
                        <rect width="20" height="4" x="-4" y="9" rx="2" transform="rotate(-70 6 11)"/>
                        <path d="M11.287 34.527l15.757 2.778c1.088.192 2.125-.534 2.317-1.622.192-1.088-.535-2.125-1.622-2.317l-15.757-2.778c-1.088-.192-2.126.534-2.317 1.622-.192 1.088.534 2.125 1.622 2.317z"/>
                    </g>
                </g>
            </g>
        </g>
    </g>
</svg>
