<svg xmlns="http://www.w3.org/2000/svg" width="23" height="25" viewBox="0 0 23 25">
    <g fill="#E9501B">
        <path d="M16.629 10.822v-4.73c0-.136-.061-.261-.148-.36L11.304.162C11.208.057 11.07 0 10.934 0H2.725C1.21 0 0 1.266 0 2.819V18.72c0 1.553 1.21 2.798 2.726 2.798h6.478C10.43 23.604 12.657 25 15.194 25c3.855 0 7.003-3.21 7.003-7.164.005-3.455-2.415-6.342-5.568-7.014zM11.442 1.83l3.473 3.746h-2.253c-.671 0-1.22-.568-1.22-1.255V1.829zM2.726 20.477c-.951 0-1.709-.781-1.709-1.756V2.82c0-.98.758-1.777 1.709-1.777h7.699V4.32c0 1.266 1.002 2.297 2.237 2.297h2.95v4.07c-.153-.005-.275-.021-.407-.021-1.775 0-3.407.698-4.638 1.792H4.11c-.28 0-.509.235-.509.521 0 .287.23.521.509.521H9.62c-.36.521-.66 1.043-.895 1.616H4.11c-.28 0-.509.234-.509.52 0 .287.23.522.509.522h4.287c-.127.521-.194 1.1-.194 1.678 0 .937.178 1.865.499 2.647H2.726v-.006zM15.2 23.963c-3.295 0-5.975-2.746-5.975-6.122 0-3.377 2.674-6.123 5.975-6.123 3.3 0 5.975 2.746 5.975 6.123 0 3.376-2.68 6.122-5.975 6.122z"/>
        <path d="M4.109 10.89H9.26c.28 0 .509-.235.509-.521 0-.287-.229-.521-.509-.521H4.11c-.28 0-.509.234-.509.52 0 .287.23.522.509.522zM17.803 17.731l-2.09 2.309v-5.69c0-.287-.229-.521-.508-.521-.28 0-.509.234-.509.52v5.69l-2.105-2.308c-.193-.208-.519-.224-.722-.026-.204.198-.219.527-.025.735l2.974 3.277c.097.105.23.167.372.167s.274-.062.37-.167l2.98-3.277c.194-.208.184-.542-.02-.735-.208-.198-.523-.182-.717.026z"/>
    </g>
</svg>
