<svg xmlns="http://www.w3.org/2000/svg" xmlns:xlink="http://www.w3.org/1999/xlink" width="21" height="22" viewBox="0 0 21 22">
    <defs>
        <path id="u2997k7xra" d="M16.04 13.119c-1.199 0-2.25.643-2.847 1.608L6.5 11.262c.153-.392.238-.818.238-1.263 0-.445-.085-.871-.238-1.263l6.692-3.465c.597.965 1.648 1.608 2.846 1.608 1.86 0 3.371-1.542 3.371-3.44C19.41 1.542 17.9 0 16.04 0c-1.858 0-3.371 1.542-3.371 3.44 0 .447.085.87.238 1.262l-6.69 3.465c-.596-.964-1.648-1.605-2.846-1.605C1.51 6.559 0 8.104 0 9.999c0 1.895 1.511 3.44 3.37 3.44 1.199 0 2.25-.644 2.847-1.606l6.69 3.465c-.153.391-.238.817-.238 1.263 0 1.895 1.51 3.439 3.37 3.439s3.371-1.542 3.371-3.44c0-1.897-1.511-3.441-3.37-3.441zm0-12.48c1.513 0 2.744 1.256 2.744 2.8 0 1.544-1.231 2.801-2.745 2.801-1.513 0-2.744-1.257-2.744-2.8 0-1.545 1.231-2.801 2.744-2.801zM3.37 12.799C1.859 12.8.627 11.543.627 10c0-1.544 1.232-2.8 2.745-2.8 1.513 0 2.744 1.256 2.744 2.8 0 1.544-1.231 2.8-2.744 2.8zm12.67 6.56c-1.514 0-2.745-1.257-2.745-2.8 0-1.545 1.231-2.801 2.744-2.801 1.514 0 2.745 1.256 2.745 2.8 0 1.544-1.231 2.801-2.745 2.801z"/>
    </defs>
    <g fill="none" stroke="#E9501B" stroke-width=".5" transform="translate(1 1)">
        <use fill="#E9501B" xlink:href="#u2997k7xra"/>
        <use xlink:href="#u2997k7xra"/>
    </g>
</svg>
