<svg xmlns="http://www.w3.org/2000/svg" width="20" height="20" viewBox="0 0 20 20">
    <g fill="none" fill-rule="evenodd">
        <g fill="#613A29" fill-rule="nonzero">
            <g>
                <g>
                    <g>
                        <path d="M2.93 20h6.523v-7.11H7.11v-2.343h2.344v-2.93c0-1.615 1.314-2.93 2.93-2.93h2.93v2.344h-2.344c-.646 0-1.172.526-1.172 1.172v2.344h3.41l-.39 2.344h-3.02V20h5.273c1.616 0 2.93-1.314 2.93-2.93V2.93C20 1.314 18.686 0 17.07 0H2.93C1.314 0 0 1.314 0 2.93v14.14C0 18.686 1.314 20 2.93 20zM1.172 2.93c0-.97.788-1.758 1.758-1.758h14.14c.97 0 1.758.788 1.758 1.758v14.14c0 .97-.788 1.758-1.758 1.758H12.97v-4.765h2.84l.781-4.688H12.97V8.203h3.515V3.516h-4.101c-2.262 0-4.102 1.84-4.102 4.101v1.758H5.937v4.688h2.344v4.765H2.93c-.97 0-1.758-.788-1.758-1.758V2.93z" transform="translate(-275 -4857) translate(164 4635) translate(0 222) translate(111)"/>
                    </g>
                </g>
            </g>
        </g>
    </g>
</svg>
