<svg xmlns="http://www.w3.org/2000/svg" width="20" height="20" viewBox="0 0 20 20">
    <g fill="none" fill-rule="evenodd">
        <g fill="#fff" fill-rule="nonzero">
            <g>
                <g>
                    <g>
                        <path d="M14.586 0H5.414C2.429 0 0 2.429 0 5.414v9.172C0 17.571 2.429 20 5.414 20h9.172C17.571 20 20 17.571 20 14.586V5.414C20 2.429 17.571 0 14.586 0zm4.242 14.586c0 2.339-1.903 4.242-4.242 4.242H5.414c-2.339 0-4.242-1.903-4.242-4.242V5.414c0-2.339 1.903-4.242 4.242-4.242h9.172c2.339 0 4.242 1.903 4.242 4.242v9.172z" transform="translate(-303 -4857) translate(164 4635) translate(0 222) translate(139)"/>
                        <path d="M10 4.531c-3.015 0-5.469 2.454-5.469 5.469S6.985 15.469 10 15.469s5.469-2.454 5.469-5.469S13.015 4.531 10 4.531zm0 9.765c-2.369 0-4.296-1.927-4.296-4.296S7.63 5.704 10 5.704 14.296 7.63 14.296 10 12.37 14.296 10 14.296zM15.6 2.59c-.892 0-1.617.724-1.617 1.615s.725 1.616 1.616 1.616c.891 0 1.616-.725 1.616-1.616 0-.89-.725-1.616-1.616-1.616zm0 2.059c-.245 0-.444-.2-.444-.444s.199-.443.443-.443c.245 0 .444.199.444.443 0 .245-.199.444-.444.444z" transform="translate(-303 -4857) translate(164 4635) translate(0 222) translate(139)"/>
                    </g>
                </g>
            </g>
        </g>
    </g>
</svg>
