<svg xmlns="http://www.w3.org/2000/svg" width="30" height="26" viewBox="0 0 30 26">
    <g fill="none" fill-rule="evenodd">
        <g fill="#623B29" fill-rule="nonzero">
            <g>
                <g>
                    <g>
                        <g>
                            <path d="M28.941 13.23c.32.003.608-.19.729-.488.12-.298.05-.64-.18-.864-1.599-1.548-3.3-3.171-4.998-4.791V1.905c-.003-.45-.367-.812-.813-.81l-3 .02c-.208.003-.407.089-.553.239-.146.15-.226.353-.224.563v.94c-.999-.907-1.908-1.75-2.766-2.527L17.1.284c-.26-.228-.652-.218-.9.024-2.54 2.534-4.472 4.517-5.796 5.95-.102.168-.06.387.096.505.11.136.303.17.453.082 1.389-1.185 3.285-2.89 5.679-5.098 1.068 1.034 2.196 2.15 3.51 3.423.141.135.327.212.522.214.421.004.766-.337.771-.761v-.016c0-.604 0-1.242.018-1.91h1.386v4.728c0 .23.094.449.261.605 1.299 1.227 2.601 2.452 3.873 3.628l-1.944.027h-.024c-.194.004-.378.086-.51.228-.133.143-.203.333-.195.528.063 4.123.162 7.703.3 10.158-1.335-.073-2.868-.115-4.428-.124.186-1.475.3-3.812.345-6.418.004-.212-.076-.416-.222-.568-.145-.152-.345-.24-.555-.243h-.027c-1.476-.027-3.036-.027-4.5 0h-.027c-.21.003-.412.09-.56.241-.147.152-.228.357-.226.57.042 2.624.159 5.04.351 6.52-1.157.038-2.31.14-3.456.303-.057 0-.102.212-.099.444.003.233.045.375.099.384 3.3.56 13.2.557 16.5 0 .057 0 .102-.208.096-.435-.006-.227-.045-.366-.096-.375-.585-.1-1.386-.181-2.319-.248.126-2.307.222-5.623.3-9.463l3.165.043zm-12.957 3.649h2.928c.051 2.273.162 4.278.327 5.599-1.233 0-2.454.024-3.585.063.168-1.33.279-3.383.33-5.662z" transform="translate(-349 -29) translate(342 25) translate(7 4)"/>
                            <path d="M2.553 19.016c.411.23.856.394 1.317.487.208.037.419.06.63.07.063 2.433.138 4.498.234 6.046 0 .163.207.302.438.275.231-.027.375-.13.384-.275.102-1.68.186-3.988.249-6.727v-.072c-.011-.174-.092-.337-.223-.45-.132-.114-.303-.17-.476-.155h-.024c-.312.023-.626-.002-.93-.075-.312-.077-.61-.202-.885-.37-.574-.349-1.017-.88-1.26-1.51-.243-.66-.255-1.384-.033-2.05.239-.688.716-1.266 1.344-1.627.245-.14.399-.4.402-.683v-.016c.014-.772.323-1.508.864-2.055.834-.84 2.085-1.095 3.177-.65 1.093.444 1.816 1.503 1.839 2.69v.018c.006.282.159.54.402.678.636.362 1.117.948 1.353 1.644.117.338.17.695.156 1.052-.009.35-.077.694-.201 1.02-.25.628-.697 1.159-1.272 1.51-.275.164-.572.287-.882.367-.302.066-.612.09-.921.07h-.087c-.348.01-.623.299-.618.65.063 3.022.144 5.139.243 6.732 0 .16.204.281.429.27.225-.013.363-.128.372-.27.09-1.46.165-3.392.228-6.047.21-.006.418-.027.624-.063.455-.089.895-.248 1.302-.472.872-.482 1.56-1.244 1.953-2.164.204-.48.321-.991.348-1.512.035-.54-.031-1.081-.195-1.596-.292-.93-.87-1.74-1.65-2.316C10.959 9.09 9 7.297 6.657 7.297S2.355 9.09 2.13 11.44c-.767.561-1.34 1.35-1.641 2.255-.166.513-.237 1.052-.21 1.59.014.526.122 1.044.321 1.53.386.935 1.074 1.71 1.953 2.201z" transform="translate(-349 -29) translate(342 25) translate(7 4)"/>
                        </g>
                    </g>
                </g>
            </g>
        </g>
    </g>
</svg>
