<svg xmlns="http://www.w3.org/2000/svg" width="18" height="18" viewBox="0 0 18 18">
    <g fill="none" fill-rule="evenodd">
        <g fill="#FFF" fill-rule="nonzero" stroke="#FFF" stroke-width=".5">
            <g>
                <g>
                    <g>
                        <g>
                            <path d="M6.223 12.49c1.287 0 2.484-.387 3.477-1.05l4.27 4.216c.231.229.536.343.84.343.305 0 .61-.114.842-.343.463-.458.463-1.204 0-1.662l-4.27-4.216c.672-.981 1.065-2.163 1.065-3.434 0-3.39-2.792-6.147-6.224-6.147C2.792.197 0 2.955 0 6.344c0 3.39 2.792 6.146 6.223 6.146zm9.146 1.784c.308.304.308.798 0 1.103-.308.304-.81.304-1.117 0l-4.225-4.173c.418-.32.793-.69 1.117-1.103l4.225 4.173zM6.223.592c3.211 0 5.824 2.58 5.824 5.752 0 3.171-2.613 5.751-5.824 5.751C3.013 12.095.4 9.515.4 6.344.4 3.173 3.012.592 6.223.592z" transform="translate(-1210 -33) translate(342 25) translate(869 9)"/>
                            <path d="M2.452 6.541c.11 0 .2-.088.2-.197 0-1.9 1.565-3.446 3.49-3.446.11 0 .2-.089.2-.198 0-.109-.09-.197-.2-.197-2.145 0-3.89 1.723-3.89 3.84 0 .11.09.198.2.198z" transform="translate(-1210 -33) translate(342 25) translate(869 9)"/>
                        </g>
                    </g>
                </g>
            </g>
        </g>
    </g>
</svg>
